<svg xmlns="http://www.w3.org/2000/svg" width="800" height="800" viewBox="0 0 800 800"><path fill="#e2e2e2" d="M2 2h796v796H2z"/><path fill="#666" d="M796 4v792H4V4h792m4-4H0v800h800V0z"/><path fill="none" stroke="#666" stroke-miterlimit="10" stroke-width="4" d="M0 0l800 800m0-800L0 800"/><path d="M339.4 306.3c-11.6-10.4-30.1-19.4-48.2-19.4-33.5 0-62.3 21.9-64.9 86 19.3-18.9 45.1-29.7 65.8-29.7 47.7 0 84.3 26.7 84.3 84.3s-45.6 91.6-98.1 91.6c-55.9 0-110.5-39.5-110.5-135.4 0-101.9 57.6-148 117.8-148 38.7 0 68.4 15.1 86.9 32.7zm-20.7 121.2c0-27.9-16.3-39.5-40.4-39.5-15.9 0-33.5 7.3-50.3 26.6 6.5 43.5 27.5 57.2 49 57.2s41.7-13.3 41.7-44.3zm321.2 21.1h-34.4v65.3h-58.9v-65.3H415v-43.4l114-164.3h76.5v159.5h34.4zm-93.3-48.2v-46c0-17.2 1.3-42.5 2.2-59.7h-1.7c-9.1 15.4-20.3 30.9-29.7 46.4l-41.3 59.3z" style="isolation:isolate"/></svg>