<svg xmlns="http://www.w3.org/2000/svg"><symbol id="brachiosaurus" viewBox="0 0 256 256"><path d="M59.7 166.7a32.5 32.5 0 0 0-7.6.9c0 .3.3.6.8 1l2 1 2.6 1 2.8.8 2.4.6 1.4.2h2.1l2.5-.4 2.3-.8a4.4 4.4 0 0 0 1.7-1.4 27.5 27.5 0 0 0-6.3-2.2 31.2 31.2 0 0 0-6.7-.7z"/><path d="M128 2a126 126 0 1 0 126 126A126 126 0 0 0 128 2zm82 69.5v.3a5.5 5.5 0 0 1 0 1.4c-.1.7-.1 1.4-.3 2.1s-.2 1.4-.3 2.1l-.2 1.3a9.7 9.7 0 0 0-.9 1.8l-.6 2-.6 2a15.9 15.9 0 0 1-.7 1.9 30.4 30.4 0 0 1-1.7 3 21 21 0 0 0-1.6 3l-19.8 27.5-.2.5-.3.3-.3.3-.4.5-1.6 2.2-2 2.9-2.2 3.2-2 3.2a24.2 24.2 0 0 0-1.4 2.9 6.8 6.8 0 0 0-.5 2.3c0 .3-.4.5-.4.7v.7s-.3.1-.3.4.3.4.3.4v10.1a2.3 2.3 0 0 1-.1 1c-.2.4-.1.7-.3 1.2l-.4 1.2a4.7 4.7 0 0 0-.3 1.1v1.6a.7.7 0 0 1-.2.4l-.5.8c-.2.3-.6.6-.8.8s-.6.4-.6.4v.4c0 .1.9.2 1 .4s1 .3 1 .4v2.8a23.5 23.5 0 0 1-.7 3.5c-.2 1.2-.6 2.3-.8 3.5s-.5 2.3-.7 3.5a22.5 22.5 0 0 0-.3 3.5 60.9 60.9 0 0 0 .3 6.2 41.5 41.5 0 0 0 1.1 6.1 31.7 31.7 0 0 0 2.1 5.7 23.2 23.2 0 0 0 3.4 5.2l-1.3.8-1.7.7-1.7.5h-1.9l-1-.2-1.2-.3-1-.2h-.7l-.7-.3-.6-.5a1.3 1.3 0 0 1-.3-.7 29.6 29.6 0 0 0 .1-4c0-1.4-.1-2.8-.3-4.2s-.3-2.8-.5-4.2-.4-2.7-.5-4l-.2-.6a1.5 1.5 0 0 0-.2-.6c.1-1.1.1-2.3.1-3.6s0-2.6-.1-4a25.9 25.9 0 0 0-.6-3.9 11.4 11.4 0 0 0-1.4-3.4 3.3 3.3 0 0 0-1.4 1.8 21.9 21.9 0 0 0-.8 2.7c-.2 1-.2 1.9-.4 2.9s-.9 1.7-.9 2.3v7.6c0 2.8-.2 5.6-.1 8.2s.2 5.4.5 8.1l.4.3.8.6.8.7a.9.9 0 0 1 .3.6c0 .2-.3.5-.8.8l-1.8.9a16.3 16.3 0 0 1-2 .4 2.9 2.9 0 0 1-1.3 0h-.2l-4.6-2.2c-.3-.1-.1 0-.1-.1v-.6a23.8 23.8 0 0 1-.1-3 22.2 22.2 0 0 0 0-3 26 26 0 0 0-.3-3.8c-.2-1.2-.4-2.5-.6-3.7s-.4-2.5-.6-3.7a29.5 29.5 0 0 1-.3-3.9c0-1.2 0-2.3.1-3.3s.2-1.9.3-2.8l.5-2.8.7-3.2a1.4 1.4 0 0 0 0-.7 4.1 4.1 0 0 1-.1-.7l-1.9.2-1.8.5-1.9.6-1.9.5-1.3.2h-1.1c-.3 0-.7-.4-1-.4s-.7-.5-1.1-.5h-1.8c-1.8 0-3.5.4-5.2.3s-3.4 0-5.2 0l-2.4.2a4.1 4.1 0 0 0-2.3.9v5.2c0 1.7-.1 3.4-.2 5.1s-.3 3.4-.3 5.1-.2 3.4-.2 5.2v5c0 .5.7 1.1 1.2 1.7l1.4 1.7 1.2 1.7a3.4 3.4 0 0 1 .5 1.8v.4a9.1 9.1 0 0 1-4 .4c.1.5 0 .7-.2.8h-2.7l-2.2-.2a4.3 4.3 0 0 1-1.8-.8 2.2 2.2 0 0 1-.8-1.8 6.9 6.9 0 0 1 .1-1.3l.3-1.3c.1-.4.2-.9.3-1.3a6.3 6.3 0 0 0 .1-1.4 25.8 25.8 0 0 0-.3-3.8c-.2-1.2-.4-2.4-.7-3.6s-.5-2.7-.8-3.9-.5-3-.7-4h-.4c-.2 0-.4.8-.5 1l-.4.7-.3.5-1.5 2.3-1.4 2.3a16.6 16.6 0 0 0-1.1 2.4 8.4 8.4 0 0 0-.4 2.7 4.3 4.3 0 0 0 .3 1.6l.7 1.5.7 1.2.3.6a.8.8 0 0 1-.4.7l-1 .5-1.3.2H98a2.2 2.2 0 0 1-1.1-.3 2.1 2.1 0 0 1-.7-.8 9.1 9.1 0 0 1-.5-1.6l-.5-1.6a5 5 0 0 1-.3-1.6 3.4 3.4 0 0 1 .4-1.5l.9-1.6 1.1-1.6a7.2 7.2 0 0 0 .8-1.4l2.4-5.9 2.4-5.9.5-.7.5-.7.4-.7a1.8 1.8 0 0 0 .2-.8c0-.4-.1-.6-.3-.6H103l-8.9 2a2.7 2.7 0 0 1-1.3.5l-1.8.4-1.6.6a1.1 1.1 0 0 0-.7 1.1 1.5 1.5 0 0 0 .3.9l.6.7.8.5.7.6-.4.4-1.3-.8-1.4-.8-1.5-.6-1.5-.2a14.5 14.5 0 0 0-3.8.5l-3.9 1.1-3.9 1.1a17.1 17.1 0 0 1-4.2.5l-3.4-.4L61 179l-5.4-1.7a37.5 37.5 0 0 1-4.9-2.2 15.6 15.6 0 0 1-3.6-2.7 4.2 4.2 0 0 1-1.4-2.9 4.4 4.4 0 0 1 1.1-3.2 6.3 6.3 0 0 1 2.7-1.6 13.7 13.7 0 0 1 3.5-.5h8.5l2.3.3 2.5.4 2 .3 1.9.6 1.8.9 1.8.8a6.1 6.1 0 0 0 2 .3 8.7 8.7 0 0 0 3.9-1.1 30.3 30.3 0 0 0 4.1-2.5l3.9-3.1 3.2-2.7 1.8-1.2 1.8-1.1 1.7-1.2a7.9 7.9 0 0 0 1.5-1.7 37.3 37.3 0 0 0 2.6-4.4 31 31 0 0 1 2.7-4.4 6.9 6.9 0 0 1 1.3-1.3l1.5-1 1.6-.9 1.6-.9 3.6-2.6 3.4-2.9 3.3-3 3.4-2.8a21.3 21.3 0 0 1 3.7-2.2l3.9-1.8 2.5-1.3 2.4-1.3 2.5-1.1a12.4 12.4 0 0 1 2.6-.7l22.2-3.2a10.7 10.7 0 0 0 3.5-1.1 20 20 0 0 0 3.3-2.2 31.8 31.8 0 0 0 3.2-2.9l2.9-3.2 2.6-3.2 2.3-2.8 7.6-8.9.3-.3.5-.5.5-.5.3-.3 2-3.2.2-.2.4-.2.4-.2.2-.2.4-.4.4-.4 1.2-1.7 1.4-2 1.3-1.9 1-1.7a12.7 12.7 0 0 0 .9-2l.7-2.1c.2-.7.5-1.4.8-2.2s1-1.5 1-2.2v-6a5.2 5.2 0 0 0-1.1-3.1 11.6 11.6 0 0 0-2.6-2.6 13.1 13.1 0 0 0-3.3-1.8 9.2 9.2 0 0 0-3.2-.7 24.6 24.6 0 0 0-5.8.7 12.1 12.1 0 0 0-5.1 2.6l-1.4 1.4-1.4 1.6-1.7 2-1.8 1.8-1.8 1.3a3.5 3.5 0 0 1-1.8.5 1.7 1.7 0 0 1-1.2-.5 1.6 1.6 0 0 1-.6-1.1v-.4l.2-.5.2-.8.2-.8V64a5.1 5.1 0 0 0-.2-1.7l-.6-1.3-.6-1.2a3.1 3.1 0 0 1-.2-1.2 1.1 1.1 0 0 0 .8-.3l.4-.6.4-.7a1.7 1.7 0 0 1 .8-.6h.5l.9-.2.9-.2h.5c.4 0 .8 0 .9-.2l.7-.6h.4l.2.4.2.4a.4.4 0 0 1 .4-.4l.6-.4 1.1-.6 1.3-.8 1.3-.8 1.1-.6.6-.4 2.1-1.2 1.8-.6 1.9-.2h6.4l1.5.5 1.5.3 1.5.3 1.5.5a14.9 14.9 0 0 1 4.5 3 17 17 0 0 1 3.2 4.2 19.1 19.1 0 0 1 1.6 5 23.8 23.8 0 0 1 .4 5.4v1.5c0 .2.1.6.1.8z"/></symbol><symbol id="micropachycephalosaurus" viewBox="0 0 256 256"><path d="M132.5 150.9c-.3 0-.4.2-.4.6h-.1a.4.4 0 0 0-.5.5c0 .4.2.6.5.6s.4-.2.4-.6h.1c.3 0 .5-.2.5-.5s-.2-.6-.5-.6zm1.4-.6c-.4.2-.7-.3-.9.7h.3a2.1 2.1 0 0 0 1.1-.3c.4-.2.6-.7.8-.7h-.2a2 2 0 0 0-1.1.3zm3.3-2.7c-.3 0-.2.2-.2.5h-.4a.6.6 0 0 0-.6.6h-.1c-.3 0-.5.2-.5.6s.5.5.8.5.8-.2.8-.5h-.2c.3 0 .2-.2.2-.6a.5.5 0 0 0 .6-.6c0-.3-.1-.5-.4-.5zm22.8-5.9a14.3 14.3 0 0 1-1.3 1.4 1.8 1.8 0 0 0 .8 1l1.1.2a2.1 2.1 0 0 0 1.4-.5 4.7 4.7 0 0 0 1.1-1.2 10.5 10.5 0 0 0 .8-1.5c.2-.5.4-1.2.5-1.2H161c-.2.1-.5 1.2-1 1.8z"/><path d="M128 2a126 126 0 1 0 126 126A126 126 0 0 0 128 2zm94.5 74.7l-1.5.4h-3.7a42.2 42.2 0 0 0-5.2 1.2 15.8 15.8 0 0 0-3.6 1.6 9.2 9.2 0 0 0-2.5 2.2 13.8 13.8 0 0 0-1.7 2.9 35.5 35.5 0 0 0-1.5 3.9l-1.6 5-1.2 3.5c-.4 1.1-.8 2.1-1.2 3.2s-.9 2.1-1.4 3.1l-1.7 3.2a33 33 0 0 1-2.6 4l-2.9 3.6-3.1 3.5c-1.1 1.2-2.1 2.4-3.1 3.8a10.4 10.4 0 0 0-1.4 2.6c-.3.9-.6 1.7-1 2.5a8.3 8.3 0 0 1-1.3 2.2 5.5 5.5 0 0 1-2.5 1.6l-1.3.6-2 .7-2 .6-1.3.4a2.9 2.9 0 0 1 .2 2 1.9 1.9 0 0 1-.9.9l-1.2.6a1.6 1.6 0 0 0-.9 1l-2.2 6.7a2.7 2.7 0 0 1-1 1.5 5.8 5.8 0 0 1-1.8.9c-.6.2-1.3-.2-2-.1s-1.3-.4-1.8-.4h-.8c-.5 0-.9.5-1.1.4s-.4-.2-.4-.7 0-.2.1-.3l.2-.2.2-.3a.6.6 0 0 0 .1-.4.5.5 0 0 1 0-.2 23.1 23.1 0 0 0-3.4 1.6l-3.3 2-3.3 2.2-3.3 2-.9.4-1.2.6-1 .8a1.5 1.5 0 0 0-.4 1v.3a1.6 1.6 0 0 1 0 .2l1.8 1.6 1.9 1.7 2 1.6 2.1 1.2 1.8.7 1.9.5 1.9.6a7.3 7.3 0 0 1 1.7.9 8.2 8.2 0 0 1 1.3 1.4l1.1 1.5 1.1 1.4a6.1 6.1 0 0 0 1.5 1.3l1.7.6 2.1.6a6.2 6.2 0 0 1 1.8 1 2.1 2.1 0 0 1 .8 1.7v.5l-5.6 1.1-1.1.4a2.3 2.3 0 0 1-1.2.3h-.6l-1.1-.6-1.7-1-1.7-1-1-.7-.2-.2-.3-.5-.3-.5-.2-.4-2.2-4.5-1.1-.4-1.8-.7-2.1-.9-2.1-1-1.8-.8-1.1-.6-2.8-1.6a16.1 16.1 0 0 1-2.6-2.1 13.1 13.1 0 0 1-2-2.7 8.1 8.1 0 0 1-1-3.1l-.6.2-.6.3-.9.6-1.7 1.2-2.1 1.4-2.1 1.3-1.7 1.1-.9.5-5.9 3.5a23 23 0 0 0-4.5 3.4 16.2 16.2 0 0 0-3.3 4.4c-.9 1.7-1.1 3.9-2.1 6.6v.2a3.4 3.4 0 0 1 0 .4v.9a10.1 10.1 0 0 0 .9 4.4 7.5 7.5 0 0 0 2 2.5 8 8 0 0 0 2.5 1.4l2.5 1a5.6 5.6 0 0 1 1.9 1 4.9 4.9 0 0 1 .8 2h-13.8l-.2-.4c-.1-.2-.2-.1-.4-.2h-.5l-.6-.3a2.9 2.9 0 0 1-1.2-1.5 8.7 8.7 0 0 1-.5-2.1 16.4 16.4 0 0 1 .4-2.3c0-.8.5-1.4.5-2v-1.4a4.7 4.7 0 0 1 0-1.7c.2-.8.2-1.7.5-2.7s.4-2 .7-3.1.5-2.1.8-3.1l.6-2.6.4-1.7a15.1 15.1 0 0 1 .7-2 13 13 0 0 1 1-1.9 14.2 14.2 0 0 0 4.5-2.5 27.3 27.3 0 0 0 3.2-3.3l2.9-3.4a15.3 15.3 0 0 1 3.4-3.1l1.4-.7 2-.8 2.3-1 2.1-1.1a7.9 7.9 0 0 0 1.6-1.3 2.3 2.3 0 0 0 .6-1.5v-1.3a1.8 1.8 0 0 0-.6-1.2l-.8-.3-1.2-.5-1.2-.6-.8-.3a10.2 10.2 0 0 1-2-1.2l-2.6-1.9-2.5-1.8a4.3 4.3 0 0 0-1.7-.8h-7.8c-5.9 0-11.8.1-17.5.3s-11.6.3-17.5.3c-4.4 0-8.6-.1-12.8-.3a107.9 107.9 0 0 1-12.2-1.8 85 85 0 0 1-11.9-2.9 68.8 68.8 0 0 1-11.7-5l-1.4-.7-1.6-1a5.9 5.9 0 0 1-1.3-1.3 2.5 2.5 0 0 1-.5-1.6 6.9 6.9 0 0 1 2.1.4l2.4.9 2.2 1 1.5.6 4.6 1.6 5 1.4 5.1 1a33.7 33.7 0 0 0 4.8.4h25l1.2-.2 2.5-.4 3.3-.5 3.6-.6 3.4-.6 2.6-.6 6.8-1.3 7.3-1.6c2.4-.6 4.8-1.3 7.2-2.1a47.3 47.3 0 0 0 6.6-2.8l3.8-1.8 3.8-1.6 3.9-1.3a31.7 31.7 0 0 1 4.2-.9h4.5l1-.2 1.9-.3 3.3-.7 4-.9 4-.9c1.2-.3 2.4-1.2 3.3-1.4s1.6-1 1.9-1h6.5c2.7 0 5.3.7 7.9 1s5.1.6 7.8.6a9.9 9.9 0 0 0 5-1.2 18.2 18.2 0 0 0 4.5-3.4 32.4 32.4 0 0 0 3.9-4.9 63.9 63.9 0 0 0 3.2-5.6c1-1.9 1.8-3.7 2.5-5.5s1.3-3.4 1.8-4.8.8-2.3 1.1-3.4l1-3.1a15.7 15.7 0 0 1 1.2-2.6 7.2 7.2 0 0 1 1.8-2c.7-.6 1.6-1.7 2.6-2s2.3-1.2 3.8-1.2h3c.8 2 1.7 1.3 3 1.7a38.5 38.5 0 0 1 3.5 1.7 15.3 15.3 0 0 1 3 1.9 2.9 2.9 0 0 1 1.2 2.2 2.1 2.1 0 0 1-.4 1.4 3.1 3.1 0 0 1-1.2.8z"/></symbol><symbol id="velociraptor" viewBox="0 0 256 256"><path d="M128 2a126 126 0 1 0 126 126A126 126 0 0 0 128 2zm109 115h-7.3c-3 0-6-.1-9.1-.4l-9-1-9-1c-3-.3-6-.4-9.1-.4a133.9 133.9 0 0 0-16.1 1 73 73 0 0 0-15.7 3.7l-30.3 10.9a2.4 2.4 0 0 0-1.2 1.5 20.2 20.2 0 0 0-.8 2.7l-.6 2.8a6.9 6.9 0 0 1-.6 1.9 3.1 3.1 0 0 0 1.4 1.3l2.4 1.2 2.9 1.2a18 18 0 0 1 2.7 1.4 8.4 8.4 0 0 1 2.1 1.9 3.8 3.8 0 0 1 .8 2.4 1.6 1.6 0 0 1-.5 1.2 4.9 4.9 0 0 1-1.2.9l-1.6.7-1.6.8a4.7 4.7 0 0 0-1.2 1 2.3 2.3 0 0 0-.5 1.5 3.7 3.7 0 0 0 .8 2.5 7.8 7.8 0 0 0 1.9 1.6l2.4 1.3a7.4 7.4 0 0 1 2.1 1.7 17.2 17.2 0 0 1 2 3.4 23.4 23.4 0 0 1 1.3 3.6 34.8 34.8 0 0 1 .8 3.8c.2 1.3-.2 2.6-.1 3.9l1 1.3v7.1h1.2l1.2.2 1 .2.6.2c0 .4.1.7.1.8a6.4 6.4 0 0 1-.1 1 7 7 0 0 1-.4 1.2c-.2.4-.4.5-.6.7s-.5.1-.9.1H143c-.2 0-.5-.3-1-.6l-1.5-.8-1.5-.8c-.5-.3-.9-.8-1.2-.8h-6.1c0-2 .2-2.2.6-2.9a4.2 4.2 0 0 1 1.6-1.5 7 7 0 0 1 2.1-.6l2.1-.3a5 5 0 0 0 1.6-.6 1.5 1.5 0 0 0 .6-1.4 2.7 2.7 0 0 0 0-.3v-.2l-.8-1.8-1.3-2.4a26.5 26.5 0 0 0-1.5-2.4 9.3 9.3 0 0 0-1.5-1.8l-1.3-.8-1.8-.9-1.7-1.1a2.1 2.1 0 0 1-1-1.1 22.7 22.7 0 0 1-.9-2.9 21.3 21.3 0 0 0-1.1-3.2 7.9 7.9 0 0 0-1.7-2.6 3.9 3.9 0 0 0-2.9-1 23.2 23.2 0 0 0-6 .8 26.4 26.4 0 0 0-5.7 2.2 25.8 25.8 0 0 0-4.9 3.4 22.2 22.2 0 0 0-3.9 4.5l-.3.2h-.3l-.2-.3-.2-.6-.2-.6v-.3h-.3a1.4 1.4 0 0 0-1.1.5 6.6 6.6 0 0 0-.9 1.2l-.8 1.3a3.7 3.7 0 0 1-.8 1 4.3 4.3 0 0 1-.6-1.6 14.9 14.9 0 0 1-.1-1.6 10.3 10.3 0 0 1 .4-2.9l.9-2.8a25.8 25.8 0 0 0 .9-2.5 18.9 18.9 0 0 0 .4-2.7h-4.8c0-2 .2-1.9.6-2.4a5.9 5.9 0 0 1 1.6-1.6 7.1 7.1 0 0 1 2.1-.9l2.1-.3 3 .2 2.9.5 2.9.5 2.9.2h2.3a2.5 2.5 0 0 0-1.7-1.3l-2.5-.4-2.7-.2a4.6 4.6 0 0 1-2.2-.5l-3.9-2.5h-.3a13.2 13.2 0 0 0-3.1.3 13.1 13.1 0 0 1-3.1.3 7.3 7.3 0 0 1-3-.6l-2.6-1.3-2.7-1.3a7.3 7.3 0 0 0-2.9-.6v6h1.7l1-.3.9-.5c.3-.2.3-.4.8-.6l.6-.2v2.7l2-.7c0 .1.2.3.2.5s.1.4.1.5a5.5 5.5 0 0 1-1.3 3.8 21.5 21.5 0 0 1-3.2 2.9 25.2 25.2 0 0 0-4.9-1.2l-5-.7v-7.7l-1.4.5-1.9 1a11.8 11.8 0 0 0-1.8 1.2c-.5.4-.9.8-.9 1.2v6.8a14 14 0 0 0 3-.3l1.8-.6 1.2-.6a2.6 2.6 0 0 1 1.2-.3h.3l.3.7.5 1.2.4 1.3a4.2 4.2 0 0 1 .2 1 5.1 5.1 0 0 1-.4 1.9 7.1 7.1 0 0 1-1.1 1.8 5.7 5.7 0 0 1-1.5 1.3 3.4 3.4 0 0 1-1.8.5h-1l-3-.5-3.6-.7a15.1 15.1 0 0 1-3.6-1.2c-.9-.5-1.8-1.2-1.8-2.1v-12.2c0-.1.8-.4 1.3-.8l2.1-1.6 2.5-2.2a26.5 26.5 0 0 0 2.4-2.5A20.6 20.6 0 0 0 72 140a5.5 5.5 0 0 0 .7-2.6 3.8 3.8 0 0 0-1.2-2.7 11.6 11.6 0 0 0-2.8-2l-3.2-1.4-2.5-.9-1.3-9c-.1-.8-.3-1.7-.6-2.7A11.7 11.7 0 0 0 60 116a7.1 7.1 0 0 0-1.8-2.1 4.1 4.1 0 0 0-2.6-.9 12.3 12.3 0 0 0-3.6.5 14.7 14.7 0 0 0-3.2 1.5l-1.6 1-2.5 1.5-2.9 1.7-2.9 1.7-2.5 1.3a5.3 5.3 0 0 1-1.6.8h-2.7l-2.1-.2a4 4 0 0 1-1.5-.7c-.5-.3-.5-.7-.5-1.3v-1.9c0-.6-.1-.9.2-.9h1.6a1.6 1.6 0 0 1 0-.4l.2-.8.2-.9a.9.9 0 0 0 0-.5 2.4 2.4 0 0 0-.8-.8l-.9-.5-.7-.7a2 2 0 0 1-.3-1.2 3.2 3.2 0 0 1 .2-1.2 4.8 4.8 0 0 1 .7-1.2c.3-.4.3-.6.6-.9l.8-.3v.8a5.6 5.6 0 0 0 .5 1.5 1.1 1.1 0 0 0 1.2.7 1.6 1.6 0 0 0 1.1-.5 5.2 5.2 0 0 0 .9-1.1 11.3 11.3 0 0 0 .6-1.7 2.9 2.9 0 0 0 .2-1.5H22.5a1.5 1.5 0 0 1-.9-.4l-1-.6-.9-.8a1.4 1.4 0 0 1-.4-1 4.5 4.5 0 0 1 1.1-3.1 7.4 7.4 0 0 1 2.6-1.6 16.8 16.8 0 0 1 3.2-1l2.8-.8 2.2-.9 3.3-1.6 3.3-1.8c1-.5 1.8-1.3 2.2-1.3h13.4a7.5 7.5 0 0 1 3.8 1.2 13.7 13.7 0 0 1 3.1 2.6 26.8 26.8 0 0 1 2.5 3.3l2.3 3.3a16.8 16.8 0 0 0 2.3 2.5 3.6 3.6 0 0 0 2.5 1 .8.8 0 0 0 .8-.4.9.9 0 0 1 .8-.4 3.8 3.8 0 0 1 1.5.3l1.5.7 1.5.7a3.9 3.9 0 0 0 1.5.3l4.1-.2 4.1-.4 4.1-.5 4.1-.2a64 64 0 0 1 7.2.4 38.5 38.5 0 0 1 7.2 1.6l5 2 5.1 2.2a45.6 45.6 0 0 0 5.2 1.7 21.2 21.2 0 0 0 5.4.7h2.6l12.8-2.7c4.2-.9 8.5-1.6 12.7-2.3s8.5-1.2 12.8-1.6 8.6-.7 13-.7h3.1l5.5.2a42.1 42.1 0 0 1 5 .8l36.1 7h11.6c-.8 0-1.8 1.2-3.1 1.5a18 18 0 0 1-4.1.5z"/></symbol></svg>