<svg xmlns="http://www.w3.org/2000/svg" width="800" height="800" viewBox="0 0 800 800"><path fill="#e2e2e2" d="M2 2h796v796H2z"/><path fill="#666" d="M796 4v792H4V4h792m4-4H0v800h800V0z"/><path fill="none" stroke="#666" stroke-miterlimit="10" stroke-width="4" d="M0 0l800 800m0-800L0 800"/><path d="M37.9 477.8c78.3-65.8 130.8-112.2 130.8-151.3 0-26.7-16.4-41.3-44.8-41.3-21.9 0-39.5 13.3-55 27.9l-34-33.9c28.4-28.8 55.5-43.5 97.6-43.5 57.2 0 96.4 34.4 96.4 86.9 0 46-47.3 95-100.2 141.5 15.5-1.8 35.2-3.5 49.4-3.5h65v53.3H37.9zm281.3-36.9c18 15 38.7 27 64.5 27 30.9 0 52.8-14.6 52.8-42.5s-21-42.2-49.8-42.2c-18.1 0-27.5 3.5-46 13.8l-28-18.1 7.3-138h167.3v53.3H374.6l-4.7 51.2a93.6 93.6 0 0 1 36.1-6.5c50.3 0 93.8 26.7 93.8 84.8 0 60.6-50.8 95.4-107.1 95.4-47.3 0-79.6-16.8-101.9-38.3zm407.2-134.6c-11.6-10.4-30.1-19.4-48.2-19.4-33.5 0-62.3 21.9-64.9 86 19.3-18.9 45.1-29.7 65.8-29.7 47.7 0 84.2 26.7 84.2 84.3s-45.5 91.6-98 91.6c-55.9 0-110.5-39.5-110.5-135.4 0-101.9 57.6-148 117.8-148 38.7 0 68.4 15.1 86.9 32.7zm-20.7 121.2c0-27.9-16.3-39.5-40.4-39.5-15.9 0-33.5 7.3-50.3 26.6 6.4 43.5 27.5 57.2 49 57.2s41.7-13.3 41.7-44.3z" style="isolation:isolate"/></svg>