<svg xmlns="http://www.w3.org/2000/svg" width="800" height="800" viewBox="0 0 800 800"><path fill="#e2e2e2" d="M2 2h796v796H2z"/><path fill="#666" d="M796 4v792H4V4h792m4-4H0v800h800V0z"/><path fill="none" stroke="#666" stroke-miterlimit="10" stroke-width="4" d="M0 0l800 800m0-800L0 800"/><path d="M189.3 440.4c18.1 15.9 41.7 27.5 66.7 27.5 29.6 0 51.1-11.6 51.1-32.2 0-24.1-18.5-39.1-82.5-39.1v-44.8c53.7 0 73.5-14.6 73.5-36.5 0-18.9-15.5-30.1-40.4-30.1-21.5 0-39.2 9-58.1 24.1l-31.8-38.7c26.7-21.5 57.6-34.9 92.9-34.9 59.3 0 100.6 27.1 100.6 74.9 0 28.3-19.3 48.1-52 60.6v1.7c34.4 9 61 31.4 61 66.7 0 50.7-50.7 79.5-108.3 79.5-46.9 0-80.9-15.5-101.9-38.7zm235.6 37.4c78.3-65.8 130.8-112.2 130.8-151.3 0-26.7-16.4-41.3-44.8-41.3-21.9 0-39.5 13.3-55 27.9l-34-33.9c28.4-28.8 55.5-43.5 97.6-43.5 57.2 0 96.4 34.4 96.4 86.9 0 46-47.3 95-100.2 141.5 15.4-1.8 35.2-3.5 49.4-3.5H630v53.3H424.9z" style="isolation:isolate"/></svg>